<svg id="Layer_1" data-name="Layer 1" xmlns="http://www.w3.org/2000/svg" viewBox="0 0 214.29 37.66"><defs><style>.cls-1{fill:#fff;}.cls-2{fill:#414042;}.cls-3{fill:#333;}</style></defs><title>logo black</title><path class="cls-1" d="M7.31,18.5a13.87,13.87,0,0,0,.44,7.91l.15.38H33.22l.15-.38a13.87,13.87,0,0,0,.44-7.91l-.07-.26H7.38Zm22.38,1.14.54,1.29-2.09.89A1.75,1.75,0,1,1,25,23.19h0l-.54-1.29,1.05-.45A1.74,1.74,0,0,1,26.58,21Zm-18.26,0L14.55,21a1.74,1.74,0,0,1,1.13.49l1.05.45-.54,1.29h0A1.75,1.75,0,1,1,13,21.83l-2.09-.89Z"/><path class="cls-2" d="M39.76,5.44a11.42,11.42,0,0,0-6.93,1.4C33.22,3.35,30.19,0,30.19,0c-3,1.39-2.74,5.11-2.11,7.67A15.76,15.76,0,0,0,10.67,9.24a16,16,0,0,0,9.89,28.42,15.92,15.92,0,0,0,15.85-16,15.94,15.94,0,0,0-3.34-9.78C40.56,11.67,39.76,5.44,39.76,5.44ZM33.81,18.5a13.87,13.87,0,0,1-.44,7.91l-.15.38H7.9l-.15-.38a13.87,13.87,0,0,1-.44-7.91l.07-.26H33.75Z"/><path class="cls-2" d="M24.39,21.92l.54,1.29h0a1.75,1.75,0,1,0,3.19-1.37l2.09-.89-.54-1.29L26.58,21a1.74,1.74,0,0,0-1.13.49Z"/><path class="cls-2" d="M12.72,22.74a1.75,1.75,0,0,0,3.45.45h0l.54-1.29-1.05-.45A1.74,1.74,0,0,0,14.55,21l-3.11-1.34-.54,1.29,2.09.89A1.76,1.76,0,0,0,12.72,22.74Z"/><path class="cls-3" d="M48.49,15.14l6.25,8.29V15.14h3.34V28.92H54.94l-6.25-8.25v8.25H45.33V15.14Z"/><path class="cls-3" d="M64.37,15.14V28.92h-3.6V15.14Z"/><path class="cls-3" d="M70.2,15.14l6.25,8.29V15.14h3.34V28.92H76.65L70.4,20.66v8.25H67V15.14Z"/><path class="cls-3" d="M85.84,29.07A6.1,6.1,0,0,1,81,26.85L82.7,24.4a4.41,4.41,0,0,0,2.89,1.55c.88,0,1.44-.55,1.44-1.59V18.11H82.3v-3h8.33v9.3C90.64,27.38,88.79,29.07,85.84,29.07Z"/><path class="cls-3" d="M101.86,26.48h-6l-1,2.44H91.24l5.92-13.78h3.69l5.78,13.78H102.8Zm-1.06-2.75-1.89-4.91L97,23.73Z"/><path class="cls-3" d="M120.66,28.92l-2-3.81H116v3.81h-3.6V15.14h6.19c3.66,0,5.74,1.77,5.74,4.83a4.66,4.66,0,0,1-2.46,4.44l2.87,4.5ZM116,22.23h2.61a2,2,0,0,0,2.3-2.14c0-1.36-.84-2.08-2.3-2.08H116Z"/><path class="cls-3" d="M137.48,15.14V18h-7.27v2.57h6.56v2.87h-6.56V26h7.47v2.87H126.61V15.14Z"/><path class="cls-3" d="M151.47,20c0,3.24-2,5.13-5.54,5.13h-2.46v3.81h-3.6V15.14h6.05C149.44,15.14,151.47,16.91,151.47,20Zm-3.42.12c0-1.36-.85-2.08-2.3-2.08h-2.28v4.23h2.28A2,2,0,0,0,148,20.09Z"/><path class="cls-3" d="M167.25,22c0,4-3.18,7.06-7.45,7.06s-7.45-3-7.45-7.06,3.18-7,7.45-7S167.25,18,167.25,22ZM156,22a3.89,3.89,0,0,0,3.79,4,3.81,3.81,0,0,0,3.71-4,3.78,3.78,0,0,0-3.71-3.93A3.84,3.84,0,0,0,156,22Z"/><path class="cls-3" d="M177.3,28.92l-2-3.81h-2.67v3.81H169V15.14h6.19c3.66,0,5.74,1.77,5.74,4.83a4.66,4.66,0,0,1-2.46,4.44l2.87,4.5Zm-4.68-6.68h2.61a2,2,0,0,0,2.3-2.14c0-1.36-.84-2.08-2.3-2.08h-2.61Z"/><path class="cls-3" d="M193.87,15.14v3h-4.13V28.92h-3.6V18.11h-4.09v-3Z"/><path class="cls-3" d="M200.37,17.91c-.86,0-1.43.31-1.43.94,0,2.28,7.25,1,7.25,5.94,0,2.81-2.48,4.25-5.54,4.25a10.35,10.35,0,0,1-6.35-2.2l1.4-2.81a8.8,8.8,0,0,0,5,2.08c1.06,0,1.73-.39,1.73-1.12,0-2.34-7.25-.92-7.25-5.8,0-2.57,2.18-4.21,5.5-4.21a10.57,10.57,0,0,1,5.5,1.55l-1.36,2.85A10.71,10.71,0,0,0,200.37,17.91Z"/></svg>